<svg width="314" height="49" viewBox="0 0 314 49" fill="none" xmlns="http://www.w3.org/2000/svg">
<g filter="url(#filter0_d_13_25)">
<path d="M69.9815 35V8.81818H80.7969C82.7571 8.81818 84.4489 9.2017 85.8722 9.96875C87.304 10.7273 88.4077 11.7884 89.1832 13.152C89.9588 14.5071 90.3466 16.0838 90.3466 17.8821C90.3466 19.6889 89.9503 21.2699 89.1577 22.625C88.3736 23.9716 87.2528 25.0156 85.7955 25.7571C84.3381 26.4986 82.608 26.8693 80.6051 26.8693H73.9318V21.8835H79.429C80.3835 21.8835 81.1804 21.7173 81.8196 21.3849C82.4673 21.0526 82.9574 20.5881 83.2898 19.9915C83.6222 19.3864 83.7884 18.6832 83.7884 17.8821C83.7884 17.0724 83.6222 16.3736 83.2898 15.7855C82.9574 15.1889 82.4673 14.7287 81.8196 14.4048C81.1719 14.081 80.375 13.919 79.429 13.919H76.3097V35H69.9815ZM120.396 35V8.81818H131.211C133.171 8.81818 134.863 9.2017 136.286 9.96875C137.718 10.7273 138.822 11.7884 139.597 13.152C140.373 14.5071 140.761 16.0838 140.761 17.8821C140.761 19.6889 140.364 21.2699 139.572 22.625C138.788 23.9716 137.667 25.0156 136.21 25.7571C134.752 26.4986 133.022 26.8693 131.019 26.8693H124.346V21.8835H129.843C130.798 21.8835 131.594 21.7173 132.234 21.3849C132.881 21.0526 133.371 20.5881 133.704 19.9915C134.036 19.3864 134.202 18.6832 134.202 17.8821C134.202 17.0724 134.036 16.3736 133.704 15.7855C133.371 15.1889 132.881 14.7287 132.234 14.4048C131.586 14.081 130.789 13.919 129.843 13.919H126.724V35H120.396ZM168.796 17.3707C168.651 16.8338 168.438 16.3608 168.157 15.9517C167.876 15.5341 167.531 15.1804 167.121 14.8906C166.712 14.6009 166.244 14.3835 165.715 14.2386C165.187 14.0852 164.607 14.0085 163.977 14.0085C162.707 14.0085 161.607 14.3153 160.678 14.929C159.758 15.5426 159.046 16.4375 158.543 17.6136C158.04 18.7812 157.789 20.2003 157.789 21.8707C157.789 23.5497 158.032 24.9815 158.518 26.1662C159.004 27.3509 159.707 28.2543 160.627 28.8764C161.548 29.4986 162.664 29.8097 163.977 29.8097C165.136 29.8097 166.116 29.6222 166.917 29.2472C167.727 28.8636 168.34 28.3224 168.758 27.6236C169.175 26.9247 169.384 26.1023 169.384 25.1562L170.56 25.2969H164.194V20.6818H175.482V24.1463C175.482 26.4901 174.984 28.4972 173.987 30.1676C172.998 31.8381 171.634 33.1207 169.896 34.0156C168.165 34.9105 166.175 35.358 163.925 35.358C161.428 35.358 159.234 34.8168 157.342 33.7344C155.45 32.652 153.975 31.1094 152.918 29.1065C151.862 27.0952 151.333 24.7088 151.333 21.9474C151.333 19.7997 151.653 17.8949 152.292 16.233C152.931 14.5625 153.822 13.1477 154.964 11.9886C156.114 10.8295 157.444 9.9517 158.952 9.35511C160.469 8.75852 162.102 8.46023 163.849 8.46023C165.366 8.46023 166.776 8.67756 168.08 9.11222C169.393 9.54688 170.552 10.1605 171.558 10.9531C172.572 11.7457 173.394 12.6875 174.025 13.7784C174.656 14.8693 175.048 16.0668 175.201 17.3707H168.796ZM179.212 35V8.81818H190.027C191.988 8.81818 193.679 9.17187 195.103 9.87926C196.534 10.5781 197.638 11.5838 198.414 12.8963C199.189 14.2003 199.577 15.7472 199.577 17.5369C199.577 19.3523 199.181 20.8949 198.388 22.1648C197.596 23.4261 196.471 24.3892 195.013 25.054C193.556 25.7102 191.83 26.0384 189.836 26.0384H182.996V21.0526H188.659C189.614 21.0526 190.411 20.929 191.05 20.6818C191.698 20.4261 192.188 20.0426 192.52 19.5312C192.853 19.0114 193.019 18.3466 193.019 17.5369C193.019 16.7273 192.853 16.0582 192.52 15.5298C192.188 14.9929 191.698 14.5923 191.05 14.3281C190.402 14.0554 189.605 13.919 188.659 13.919H185.54V35H179.212ZM193.952 23.0341L200.472 35H193.569L187.176 23.0341H193.952ZM209.376 8.81818V35H203.048V8.81818H209.376ZM235.631 8.81818V35H230.262L219.843 19.8892H219.677V35H213.349V8.81818H218.795L229.099 23.9034H229.316V8.81818H235.631ZM249.288 35H239.61V8.81818H249.275C251.943 8.81818 254.24 9.34233 256.166 10.3906C258.1 11.4304 259.592 12.9304 260.64 14.8906C261.689 16.8423 262.213 19.1776 262.213 21.8963C262.213 24.6236 261.689 26.9673 260.64 28.9276C259.6 30.8878 258.113 32.392 256.179 33.4403C254.244 34.4801 251.947 35 249.288 35ZM245.939 29.6051H249.045C250.511 29.6051 251.751 29.358 252.765 28.8636C253.788 28.3608 254.559 27.5469 255.079 26.4219C255.608 25.2884 255.872 23.7798 255.872 21.8963C255.872 20.0128 255.608 18.5128 255.079 17.3963C254.551 16.2713 253.771 15.4616 252.74 14.9673C251.717 14.4645 250.456 14.2131 248.956 14.2131H245.939V29.6051ZM265.907 35V8.81818H284.163V13.9574H272.235V19.3267H283.23V24.4787H272.235V29.8608H284.163V35H265.907ZM288.126 35V8.81818H298.941C300.902 8.81818 302.593 9.17187 304.017 9.87926C305.449 10.5781 306.552 11.5838 307.328 12.8963C308.103 14.2003 308.491 15.7472 308.491 17.5369C308.491 19.3523 308.095 20.8949 307.302 22.1648C306.51 23.4261 305.385 24.3892 303.927 25.054C302.47 25.7102 300.744 26.0384 298.75 26.0384H291.91V21.0526H297.574C298.528 21.0526 299.325 20.929 299.964 20.6818C300.612 20.4261 301.102 20.0426 301.434 19.5312C301.767 19.0114 301.933 18.3466 301.933 17.5369C301.933 16.7273 301.767 16.0582 301.434 15.5298C301.102 14.9929 300.612 14.5923 299.964 14.3281C299.316 14.0554 298.52 13.919 297.574 13.919H294.454V35H288.126ZM302.866 23.0341L309.386 35H302.483L296.091 23.0341H302.866Z" fill="black"/>
<path d="M93.4659 35V8.81818H99.794V19.3267H110.111V8.81818H116.426V35H110.111V24.4787H99.794V35H93.4659Z" fill="#6B52FF"/>
</g>
<g filter="url(#filter1_d_13_25)">
<path d="M53.9856 8.48493e-07C53.1871 0.000614394 52.4215 0.333492 51.8571 0.925469C51.2927 1.51745 50.9757 2.32008 50.9757 3.15696C50.9757 3.99383 51.2927 4.79646 51.8571 5.38844C52.4215 5.98042 53.1871 6.3133 53.9856 6.31391C54.3814 6.31421 54.7733 6.23278 55.139 6.07427C55.5047 5.91575 55.837 5.68326 56.117 5.39008C56.3969 5.0969 56.619 4.74877 56.7705 4.3656C56.922 3.98243 57 3.57173 57 3.15696C57 2.74218 56.922 2.33148 56.7705 1.94831C56.619 1.56514 56.3969 1.21701 56.117 0.923832C55.837 0.630652 55.5047 0.398161 55.139 0.239645C54.7733 0.0811296 54.3814 -0.000303237 53.9856 8.48493e-07ZM18.6435 1.05569L5.33383 1.07589C5.27642 1.07589 5.22121 1.06831 5.166 1.07589C4.51233 1.16681 4.00221 1.76537 4 2.48516L4.03975 39.2927C4.03975 39.8483 4.17225 41 5.54583 41L17.8683 40.947C21.3906 40.9394 23.7513 40.8687 25.1558 40.6641H25.1912C26.6579 40.4151 28.1026 40.0187 29.5085 39.4796C32.2026 38.5199 34.5876 37.0955 36.6414 35.1937C38.5831 33.4422 40.1748 31.236 41.3098 28.7232C42.0113 27.1458 42.4927 25.4526 42.7364 23.7049C42.927 23.7347 43.1185 23.7583 43.3105 23.7757C45.7962 23.7757 48.18 22.7406 49.9377 20.8981C51.6953 19.0557 52.6827 16.5568 52.6827 13.9512C52.6827 11.3456 51.6953 8.84672 49.9377 7.00428C48.18 5.16184 45.7962 4.12677 43.3105 4.12677C40.9216 4.14874 38.6308 5.12621 36.9064 6.85943C35.4084 5.44206 33.7337 4.28861 31.9376 3.43729C28.5456 1.79568 24.129 1.04306 18.6435 1.05569ZM18.0649 8.64248C20.748 8.6349 22.656 8.72835 23.7381 8.89756C24.9613 9.10716 26.1594 9.47663 27.309 9.99871C28.5677 10.5493 29.6675 11.2186 30.6126 12.0545C33.2118 14.3654 34.4375 17.1031 34.4419 20.7222C34.4485 24.4298 33.2626 27.3165 30.7319 29.7385C29.9372 30.4847 29.064 31.1142 28.1327 31.6125C27.2295 32.0923 26.0524 32.5091 24.5662 32.8652C23.1617 33.1884 21.0329 33.3703 18.2592 33.3753L12.3563 33.3854L12.3298 8.65258L18.0649 8.64248Z" fill="#6B52FF"/>
</g>
<defs>
<filter id="filter0_d_13_25" x="65.9814" y="8.46045" width="247.404" height="34.8975" filterUnits="userSpaceOnUse" color-interpolation-filters="sRGB">
<feFlood flood-opacity="0" result="BackgroundImageFix"/>
<feColorMatrix in="SourceAlpha" type="matrix" values="0 0 0 0 0 0 0 0 0 0 0 0 0 0 0 0 0 0 127 0" result="hardAlpha"/>
<feOffset dy="4"/>
<feGaussianBlur stdDeviation="2"/>
<feComposite in2="hardAlpha" operator="out"/>
<feColorMatrix type="matrix" values="0 0 0 0 0 0 0 0 0 0 0 0 0 0 0 0 0 0 0.25 0"/>
<feBlend mode="normal" in2="BackgroundImageFix" result="effect1_dropShadow_13_25"/>
<feBlend mode="normal" in="SourceGraphic" in2="effect1_dropShadow_13_25" result="shape"/>
</filter>
<filter id="filter1_d_13_25" x="0" y="0" width="61" height="49" filterUnits="userSpaceOnUse" color-interpolation-filters="sRGB">
<feFlood flood-opacity="0" result="BackgroundImageFix"/>
<feColorMatrix in="SourceAlpha" type="matrix" values="0 0 0 0 0 0 0 0 0 0 0 0 0 0 0 0 0 0 127 0" result="hardAlpha"/>
<feOffset dy="4"/>
<feGaussianBlur stdDeviation="2"/>
<feComposite in2="hardAlpha" operator="out"/>
<feColorMatrix type="matrix" values="0 0 0 0 0 0 0 0 0 0 0 0 0 0 0 0 0 0 0.25 0"/>
<feBlend mode="normal" in2="BackgroundImageFix" result="effect1_dropShadow_13_25"/>
<feBlend mode="normal" in="SourceGraphic" in2="effect1_dropShadow_13_25" result="shape"/>
</filter>
</defs>
</svg>
